<svg width="775" height="771" viewBox="0 0 775 771" fill="none" xmlns="http://www.w3.org/2000/svg">
<path d="M944.018 851.888C920.85 894.808 882.839 927.725 837.412 944.208C791.985 960.691 742.405 959.556 698.359 941.023C654.313 922.491 618.966 887.894 599.222 843.991C579.479 800.088 576.759 750.033 591.593 703.607C606.427 657.18 637.75 617.716 679.441 592.926C721.133 568.136 770.198 559.8 817.051 569.547C863.903 579.295 905.178 606.425 932.81 645.637C960.441 684.849 972.446 733.326 966.477 781.598L932.834 777.922C937.754 738.135 927.859 698.178 905.084 665.858C882.309 633.537 848.289 611.176 809.671 603.141C771.053 595.107 730.611 601.978 696.247 622.411C661.884 642.844 636.066 675.372 623.839 713.639C611.613 751.906 613.855 793.163 630.128 829.349C646.401 865.536 675.536 894.053 711.84 909.328C748.145 924.602 789.01 925.538 826.454 911.952C863.897 898.366 895.227 871.235 914.323 835.858L944.018 851.888Z" fill="#FFE4AB" fill-opacity="0.66"/>
<path d="M980.605 886.527C944.778 952.897 888.686 1005.25 823.286 1033.35C757.887 1061.46 687.879 1063.3 626.94 1038.51C566.001 1013.73 518.51 964.096 493.745 899.318C468.979 834.539 468.719 759.267 493.014 688.207C517.31 617.148 564.416 555.405 625.13 515.043C685.843 474.681 755.802 458.599 821.338 469.939C886.874 481.279 943.279 519.226 979.532 576.367C1015.79 633.508 1029.28 705.737 1017.39 778.942L982.34 776.622C992.686 712.95 980.946 650.129 949.414 600.43C917.883 550.732 868.824 517.727 811.824 507.864C754.824 498.001 693.977 511.988 641.171 547.093C588.365 582.199 547.394 635.9 526.263 697.704C505.131 759.509 505.358 824.978 526.897 881.319C548.437 937.66 589.743 980.826 642.745 1002.38C695.747 1023.94 756.637 1022.34 813.519 997.897C870.4 973.452 919.187 927.919 950.347 870.194L980.605 886.527Z" fill="#FFE4AB" fill-opacity="0.5"/>
<path d="M1064.2 930.25C1016.98 1017.73 942.346 1086.36 854.887 1122.73C767.428 1159.1 673.425 1160.59 591.244 1126.92C509.063 1093.25 444.608 1026.83 410.472 940.636C376.335 854.445 374.97 754.677 406.643 660.822C438.316 566.968 500.752 485.77 581.752 433.094C662.751 380.417 756.496 360.045 844.67 375.959C932.844 391.873 1009.11 442.929 1058.58 519.152C1108.04 595.375 1127.14 691.289 1112.15 788.155L1070.48 785.015C1083.74 699.311 1066.84 614.45 1023.07 547.01C979.311 479.571 911.831 434.398 833.817 420.318C755.804 406.238 672.862 424.262 601.196 470.868C529.53 517.475 474.289 589.316 446.265 672.356C418.242 755.395 419.45 843.667 449.652 919.925C479.855 996.184 536.883 1054.95 609.594 1084.74C682.305 1114.54 765.476 1113.21 842.857 1081.04C920.238 1048.86 986.269 988.139 1028.05 910.736L1064.2 930.25Z" fill="#FFE7B3" fill-opacity="0.36"/>
<path d="M955.1 844.677C903.93 939.471 827.209 1016.07 739.924 1059.52C652.64 1102.97 561.064 1110.13 483.087 1079.62C405.111 1049.11 346.336 983.117 318.246 894.528C290.156 805.939 294.769 701.122 331.184 600.556C367.598 499.989 433.198 410.899 515.168 350.69C597.137 290.481 689.586 263.479 774.453 274.96C859.32 286.442 930.507 335.581 974.107 412.777C1017.71 489.974 1030.59 589.682 1010.23 692.42L969.858 691.601C987.869 600.701 976.473 512.483 937.897 444.182C899.321 375.881 836.336 332.404 761.249 322.246C686.161 312.088 604.365 335.978 531.842 389.249C459.318 442.52 401.277 521.344 369.058 610.322C336.84 699.3 332.758 792.039 357.611 870.419C382.465 948.8 434.467 1007.19 503.458 1034.19C572.449 1061.18 653.473 1054.84 730.699 1016.4C807.926 977.959 875.806 910.183 921.079 826.313L955.1 844.677Z" fill="#FFE7B3" fill-opacity="0.4"/>
<path d="M1083.07 962.26C1010.22 1071.44 903.374 1152.27 783.397 1188.96C663.42 1225.64 538.936 1215.54 434.266 1160.63C329.595 1105.72 252.259 1009.95 217.366 892.027C182.472 774.102 192.529 642.497 245.571 522.924C298.614 403.35 390.83 304.399 504.205 245.403C617.579 186.407 743.966 171.604 858.673 203.887C973.38 236.169 1068.17 313.218 1124.51 419.979C1180.86 526.741 1194.71 655.545 1163.38 781.227L1123.36 774.292C1152.05 659.198 1139.36 541.246 1087.77 443.479C1036.17 345.712 949.367 275.155 844.324 245.592C739.281 216.029 623.543 229.585 519.72 283.611C415.897 337.637 331.45 428.251 282.876 537.75C234.303 647.25 225.093 767.767 257.047 875.757C289 983.747 359.821 1071.45 455.673 1121.73C551.525 1172.01 665.521 1181.26 775.39 1147.67C885.259 1114.08 983.107 1040.06 1049.82 940.073L1083.07 962.26Z" fill="#FFE7B3" fill-opacity="0.54"/>
</svg>
