<?xml version="1.0" encoding="UTF-8"?>
<svg id="Layer_2" data-name="Layer 2" xmlns="http://www.w3.org/2000/svg" viewBox="0 0 113.29 71.5">
  <defs>
    <style>
      .cls-1 {
        letter-spacing: .26em;
      }

      .cls-2 {
        letter-spacing: .25em;
      }

      .cls-3 {
        letter-spacing: .34em;
      }

      .cls-4 {
        font-family: Poppins-Bold, 'Poppins Bold';
        font-size: 10.16px;
        font-weight: 700;
      }

      .cls-4, .cls-5 {
        fill: #a23121;
      }

      .cls-6 {
        letter-spacing: .34em;
      }

      .cls-5, .cls-7 {
        stroke-width: 0px;
      }

      .cls-8 {
        letter-spacing: .35em;
      }

      .cls-9 {
        letter-spacing: .34em;
      }

      .cls-10 {
        font-family: Poppins-Medium, 'Poppins Medium';
        font-size: 2.64px;
        font-weight: 500;
      }

      .cls-10, .cls-7 {
        fill: #72be44;
      }

      .cls-11 {
        letter-spacing: .33em;
      }

      .cls-12 {
        letter-spacing: .3em;
      }
    </style>
  </defs>
  <g id="Layer_1-2" data-name="Layer 1">
    <g>
      <g>
        <path class="cls-5" d="M89.2,2.29v34.15c0,6.68-8.64,12.43-21.05,15.01-4.49.93-9.47,1.45-14.71,1.45-17.94,0-32.79-6.08-35.36-14.01l.91.26c3.35,4.6,12.81,7.92,23.93,7.92,13.93,0,25.23-5.2,25.23-11.61V2.29h21.05Z"/>
        <rect class="cls-5" x="49.61" width="58.39" height="2.29"/>
        <path class="cls-7" d="M.02,24.66c-.06.1.07.21.29.24h0c1.62.19,3.13.56,4.41,1.06,1.3.49,2.37,1.11,3.3,1.77,1.85,1.32,3.14,2.8,4.34,4.29,1.2,1.49,2.32,3,3.56,4.5,1.25,1.49,2.64,2.97,4.42,4.37.9.7,1.87,1.38,2.98,2.02.55.32,1.13.63,1.76.93.31.14.59.29.92.43.33.14.65.29.99.43,2.65,1.1,5.78,1.99,9.23,2.53,1.73.26,3.53.44,5.36.51,1.83.06,3.7.02,5.51-.14,1.82-.15,3.59-.43,5.26-.82.83-.19,1.64-.41,2.4-.65.76-.23,1.6-.47,1.62-1.08,0-.19-.29-.36-.71-.39h-.06c-.66-.05-1.07,0-1.46.08-.19.04-.35.09-.51.15l-.49.16c-.66.21-1.34.4-2.06.57-.71.17-1.46.31-2.21.44-.76.12-1.53.22-2.32.3-1.57.16-3.2.21-4.82.18-1.62-.03-3.24-.16-4.82-.36-3.16-.42-6.11-1.18-8.72-2.15-.33-.12-.63-.25-.95-.37-.32-.12-.63-.27-.95-.4-.59-.26-1.19-.54-1.74-.83-1.11-.58-2.13-1.21-3.05-1.87-1.84-1.32-3.33-2.75-4.66-4.21-1.34-1.46-2.49-2.96-3.75-4.45-.63-.74-1.29-1.48-2.02-2.21-.72-.73-1.52-1.45-2.47-2.13-.95-.68-2.07-1.32-3.42-1.85-1.15-.46-2.48-.82-3.92-1.06,2.99-1.13,6.32-2.06,9.88-2.72,3.79-.71,7.82-1.12,11.88-1.25,4.06-.13,8.16.03,12.11.44,3.96.41,7.78,1.07,11.32,1.96,3.54.89,6.79,2.01,9.54,3.33,2.75,1.32,4.99,2.85,6.36,4.52.69.83,1.17,1.7,1.41,2.57.24.87.24,1.76,0,2.63-.24.87-.72,1.73-1.39,2.55-.33.41-.73.82-1.15,1.21-.22.19-.41.37-.66.58l-.06.05c-2.91-1.28-5.83-2.65-8.75-4.03-4.27-2.01-8.58-4.04-12.93-5.79-2.17-.88-4.36-1.68-6.51-2.39-2.16-.71-4.3-1.32-6.34-1.81-2.05-.5-4.01-.87-5.79-1.15-1.78-.27-3.38-.44-4.7-.55-1.32-.1-2.37-.15-3.09-.17-.72-.02-1.1-.03-1.1-.03,0,0,.38.02,1.09.05.71.04,1.75.11,3.05.24,1.3.14,2.86.34,4.58.65,1.72.31,3.61.73,5.56,1.26,1.95.53,3.98,1.18,6.02,1.93,2.03.75,4.09,1.59,6.13,2.5,4.08,1.83,8.12,3.92,12.15,6.04,4.04,2.11,8.09,4.24,12.28,6.11,2.1.93,4.22,1.8,6.39,2.56,2.16.76,4.36,1.42,6.54,1.93,2.17.52,4.32.88,6.3,1.11,1.98.23,3.77.33,5.25.36.75,0,1.39.02,2,0,.3,0,.58-.02.84-.02.13,0,.25,0,.37-.01.1,0,.19,0,.28-.01.71-.04,1.09-.06,1.09-.06.04,0,.09,0,.13,0,1.39-.11,2.34-.71,2.11-1.35-.23-.64-1.55-1.08-2.94-.97,0,0-.38.03-1.08.08-.09,0-.18.01-.28.02-.08,0-.17,0-.26.01-.18,0-.38.02-.6.03-.42.02-.98.03-1.57.04-1.19,0-2.65-.04-4.3-.19-1.65-.15-3.51-.41-5.46-.82-1.96-.4-4.02-.94-6.1-1.6-2.09-.66-4.21-1.43-6.33-2.28-.13-.05-.26-.11-.39-.16l.59-.52c.25-.22.49-.47.74-.71.46-.48.87-.95,1.22-1.45.7-.98,1.18-2,1.38-3.04.2-1.04.12-2.09-.26-3.11-.37-1.02-1.02-2.02-1.89-2.96-1.75-1.89-4.42-3.55-7.55-4.94-3.14-1.39-6.74-2.53-10.59-3.4-3.85-.88-7.96-1.5-12.16-1.86-4.2-.36-8.51-.44-12.74-.23-4.23.21-8.4.71-12.25,1.53-3.86.81-7.41,1.91-10.5,3.22h0c-.06.03-.1.06-.12.09Z"/>
      </g>
      <text class="cls-4" transform="translate(22.19 66.11) scale(2.17 1)"><tspan x="0" y="0">JUST ASK</tspan></text>
      <text class="cls-10" transform="translate(16.42 70.83) scale(2.17 1)"><tspan class="cls-12" x="0" y="0">Y</tspan><tspan class="cls-9" x="2.23" y="0">OUR HEA</tspan><tspan class="cls-2" x="18.67" y="0">L</tspan><tspan class="cls-6" x="20.59" y="0">T</tspan><tspan class="cls-11" x="22.8" y="0">H</tspan><tspan class="cls-3" x="25.4" y="0">Y </tspan><tspan class="cls-1" x="29.19" y="0">P</tspan><tspan class="cls-6" x="31.27" y="0">A</tspan><tspan class="cls-8" x="33.78" y="0">R</tspan><tspan class="cls-6" x="36.13" y="0">TNER</tspan></text>
    </g>
  </g>
</svg>