<?xml version="1.0" encoding="UTF-8"?>
<svg id="Layer_2" data-name="Layer 2" xmlns="http://www.w3.org/2000/svg" viewBox="0 0 35.82 53.63">
  <defs>
    <style>
      .cls-1 {
        fill: #d4c6bd;
      }

      .cls-1, .cls-2 {
        stroke-width: 0px;
      }

      .cls-2 {
        fill: #b79b83;
      }
    </style>
  </defs>
  <g id="Layer_1-2" data-name="Layer 1">
    <g>
      <g>
        <path class="cls-2" d="M30.1,17.01h-4.01v11.39l5.35-5.13v-4.98c0-.71-.6-1.28-1.34-1.28Z"/>
        <path class="cls-2" d="M4.64,18.3v4.98l5.35,5.13v-11.39h-4.01c-.74,0-1.34.57-1.34,1.28Z"/>
        <path class="cls-2" d="M30.1,0h-4.01l.05,9.52-1.75,1.68h0s-5.35,5.12-5.35,5.12h0s-.94.9-.94.9l-.93-.89V5.13h1.87v8.63l5.35-4.94V0h-12.57v11.2l-1.83-1.75V0h-4.01c-.74,0-1.34.95-1.34,2.12v9.75l2.29,2.07,3.06,2.76,1.56,1.49h0s5.61,5.18,5.61,5.18l1.86,1.74v2.62s0,1.92,0,1.92l-.89.94-.98-.94v-3.71l-5.35-5.13v8.84l6.29,6.02.93-.9,5.35-5.13v-11.2l2.06-1.98,2.59-2.48,2.4-2.3V2.12c0-1.17-.6-2.12-1.34-2.12Z"/>
      </g>
      <g>
        <path class="cls-1" d="M0,53.41v-11.76h3.16v4.65l4.08-4.65h3.93l-4.82,5.34,4.98,6.42h-4.12l-4.04-5.26v5.26H0Z"/>
        <path class="cls-1" d="M22.45,45.16v.13h-3.44c-.03-.43-.21-1.25-2-1.25h-.11c-1.66,0-1.83.41-1.83.87v.02c0,.47.25.87,1.8.9l1.49.05c3.15.11,4.38,1.19,4.38,3.54v.22c0,1.99-.78,4-5.13,4h-1.01c-4.58,0-5.06-2.64-5.06-4.17v-.16h3.47c.03.63.27,1.66,2.07,1.66h.1c1.77,0,2.03-.54,2.03-1.11v-.02c0-.58-.2-1-1.95-1.06l-1.54-.06c-3.21-.14-4.06-1.71-4.06-3.54v-.14c0-1.91.91-3.59,4.77-3.59h.99c4.1,0,5.03,1.85,5.03,3.71Z"/>
        <path class="cls-1" d="M24.5,53.41v-11.76h3.16v4.65l4.08-4.65h3.93l-4.82,5.34,4.98,6.42h-4.12l-4.04-5.26v5.26h-3.16Z"/>
      </g>
    </g>
  </g>
</svg>