<?xml version="1.0" encoding="UTF-8"?>
<svg id="Layer_2" data-name="Layer 2" xmlns="http://www.w3.org/2000/svg" viewBox="0 0 85.82 80">
  <defs>
    <style>
      .cls-1 {
        font-family: Helvetica-Bold, 'Helvetica Bold';
        font-size: 3.6px;
        font-weight: 700;
      }

      .cls-1, .cls-2 {
        fill: #b79b83;
      }

      .cls-3 {
        fill: #d4c6bd;
      }

      .cls-3, .cls-2 {
        stroke-width: 0px;
      }
    </style>
  </defs>
  <g id="Layer_1-2" data-name="Layer 1">
    <g>
      <g>
        <path class="cls-2" d="M66.08,24.76h-8.63v16.57l11.51-7.46v-7.25c0-1.03-1.29-1.87-2.88-1.87Z"/>
        <path class="cls-2" d="M11.29,26.63v7.25l11.51,7.46v-16.57h-8.63c-1.59,0-2.88.84-2.88,1.87Z"/>
        <path class="cls-2" d="M66.08,0h-8.63l.1,13.85-3.77,2.44h0s-11.51,7.45-11.51,7.45h0s-2.02,1.31-2.02,1.31l-2.01-1.3V7.46h4.02v12.56l11.51-7.19V0h-27.05v16.3l-3.93-2.55V0h-8.63c-1.59,0-2.88,1.38-2.88,3.09v14.19l4.93,3.01,6.58,4.01,3.36,2.17h0s12.08,7.54,12.08,7.54l4.01,2.53.02,3.81v2.8l-1.91,1.37-2.11-1.37v-5.41l-11.51-7.46v12.87l13.53,8.77,2.01-1.31,11.51-7.46v-16.3l4.44-2.88,5.58-3.61,5.16-3.35V3.09c0-1.71-1.29-3.09-2.88-3.09Z"/>
      </g>
      <g>
        <path class="cls-3" d="M0,71.08v-12.86h7.58v5.08l9.76-5.08h9.42l-11.55,5.84,11.93,7.02h-9.87l-9.68-5.76v5.76H0Z"/>
        <path class="cls-3" d="M53.78,62.06v.14h-8.24c-.08-.47-.51-1.37-4.8-1.37h-.27c-3.98,0-4.38.45-4.38.95v.02c0,.52.59.95,4.32.99l3.58.05c7.55.12,10.49,1.3,10.49,3.87v.24c0,2.18-1.87,4.37-12.3,4.37h-2.43c-10.97,0-12.11-2.89-12.11-4.56v-.17h8.32c.08.69.64,1.82,4.96,1.82h.24c4.24,0,4.86-.59,4.86-1.21v-.02c0-.64-.48-1.09-4.67-1.16l-3.68-.07c-7.68-.16-9.74-1.87-9.74-3.87v-.16c0-2.09,2.19-3.93,11.42-3.93h2.37c9.82,0,12.06,2.02,12.06,4.06Z"/>
        <path class="cls-3" d="M58.69,71.08v-12.86h7.58v5.08l9.76-5.08h9.42l-11.55,5.84,11.93,7.02h-9.87l-9.68-5.76v5.76h-7.58Z"/>
      </g>
      <text class="cls-1" transform="translate(5.61 79.1) scale(1.54 1)"><tspan x="0" y="0">INTERNATIONAL LLC</tspan></text>
    </g>
  </g>
</svg>