<?xml version="1.0" encoding="UTF-8"?>
<svg id="Layer_2" data-name="Layer 2" xmlns="http://www.w3.org/2000/svg" viewBox="0 0 248.82 170.28">
  <defs>
    <style>
      .cls-1, .cls-2 {
        fill: #a11d2d;
      }

      .cls-1, .cls-3 {
        font-family: NotoSerif-ExtraLight, 'Noto Serif';
        font-size: 7.94px;
        font-weight: 200;
      }

      .cls-2 {
        stroke-width: 0px;
      }

      .cls-3 {
        fill: #be1e2d;
      }

      .cls-4 {
        fill: none;
        stroke: #2b388f;
        stroke-miterlimit: 10;
        stroke-width: 4px;
      }

      .cls-5 {
        letter-spacing: -.02em;
      }
    </style>
  </defs>
  <g id="Layer_1-2" data-name="Layer 1">
    <polyline class="cls-4" points=".4 106.41 48.65 106.41 48.65 90.22 55.78 90.24 55.78 44.88 75.06 44.88 75.06 33.86 82.21 33.86 82.21 28.41 97.61 28.41 97.61 33.04 107.72 33.04 107.72 15.48 119.06 15.48 119.06 2 125.29 2 125.29 15.07 140.57 15.07 140.57 47.33 151.26 43.73 151.26 36.72 168.07 36.72 168.07 28.55 175.71 28.55 175.71 25.28 190.98 25.28 190.98 30.73 194.8 30.73 194.8 35.63 198.62 35.63 198.62 106.41 245.92 106.41"/>
    <polyline class="cls-4" points="88.63 107.83 88.63 90.36 81.84 90.36 81.84 43.8 75.06 43.8"/>
    <polyline class="cls-4" points="122.36 107.83 122.36 32.77 107.72 32.77"/>
    <polyline class="cls-4" points="130.06 107.83 130.06 50.53 140.57 47.33 165.01 38.62 165.01 107.83"/>
    <g>
      <path class="cls-2" d="M18.81,139.48c.22.42.44.84.65,1.26.21-.43.43-.86.66-1.29.23-.42.47-.83.73-1.22,3.26-4.86,6.51-9.8,9.77-14.8.12-.19.25-.34.38-.45.13-.11.27-.2.43-.25.16-.05.34-.09.54-.1.2-.02.43-.03.71-.03,1.54-.03,3.09-.07,4.63-.1v26.96c-1.8-.03-3.61-.05-5.41-.08v-17.28c0-.32.01-.67.03-1.06.02-.38.06-.77.1-1.17-3.33,5.1-6.65,10.13-9.98,15.08-.23.34-.53.6-.89.78-.37.18-.79.27-1.28.27-.28,0-.56,0-.84,0-.49,0-.91-.1-1.28-.3-.36-.19-.66-.46-.89-.8-3.37-5-6.74-9.91-10.11-14.73.06.39.1.77.13,1.14.02.37.03.72.03,1.04v16.59c-1.8-.03-3.61-.07-5.41-.11v-25.43c1.54-.05,3.09-.09,4.63-.14.27,0,.51,0,.71,0,.2,0,.38.03.54.07.16.04.31.12.45.22.14.1.27.24.39.42,3.29,4.68,6.57,9.45,9.86,14.29.26.39.5.79.72,1.21Z"/>
      <path class="cls-2" d="M51.97,154.99c-.17.33-.38.57-.65.74-.27.16-.67.24-1.22.23-1.4-.03-2.8-.05-4.2-.08,1.46-2.55,2.92-5.12,4.38-7.7-3.16-6.03-6.32-12-9.48-17.89,1.64-.02,3.29-.03,4.93-.05.46,0,.81.08,1.05.25.24.17.43.37.55.6,1.67,3.33,3.33,6.68,5,10.05.17.33.31.67.43,1.03.12.36.23.71.32,1.07.12-.37.25-.72.4-1.06.14-.34.3-.69.47-1.04,1.57-3.36,3.14-6.74,4.7-10.13.12-.26.32-.47.6-.63.28-.17.6-.25.95-.26,1.51-.01,3.01-.02,4.52-.04-4.25,8.41-8.51,16.72-12.76,24.92Z"/>
      <path class="cls-2" d="M81.93,133.85c-.15.21-.31.36-.48.44-.17.08-.38.13-.64.13-.27,0-.57-.06-.88-.19-.31-.13-.67-.27-1.09-.43-.41-.16-.88-.3-1.4-.43-.53-.13-1.15-.19-1.86-.19-1.11,0-1.99.21-2.63.61-.64.4-.96.93-.96,1.57,0,.42.16.78.49,1.07.33.29.76.54,1.3.76.54.22,1.15.41,1.84.59.69.17,1.39.36,2.1.57.72.21,1.42.44,2.1.71.69.27,1.3.6,1.84,1.01.54.41.97.9,1.3,1.47.33.57.49,1.26.49,2.07,0,.96-.21,1.85-.62,2.66-.41.81-1.01,1.51-1.8,2.09-.79.59-1.77,1.04-2.93,1.36-1.16.32-2.5.48-4.01.46-.81,0-1.6-.07-2.36-.2-.77-.13-1.51-.31-2.21-.53-.71-.22-1.36-.49-1.96-.79-.6-.3-1.13-.63-1.59-.98.43-.6.87-1.2,1.3-1.8.17-.22.36-.38.59-.5.23-.11.52-.17.87-.17.35,0,.68.09.99.26.31.17.67.35,1.09.55.41.2.89.38,1.45.55.56.17,1.26.26,2.11.26.67,0,1.24-.06,1.72-.19.48-.13.87-.31,1.19-.53.31-.22.54-.47.69-.76.14-.29.22-.59.22-.9,0-.47-.16-.85-.49-1.15-.33-.3-.76-.56-1.3-.78-.54-.22-1.16-.42-1.85-.6-.69-.18-1.4-.37-2.12-.58-.72-.21-1.43-.45-2.12-.73-.69-.28-1.31-.63-1.85-1.05-.54-.42-.97-.94-1.3-1.56-.33-.62-.49-1.36-.49-2.23,0-.81.19-1.58.57-2.31.38-.73.94-1.37,1.68-1.92.74-.55,1.66-.99,2.76-1.33,1.1-.34,2.38-.51,3.82-.52,1.61-.01,3.08.21,4.41.65,1.33.45,2.43,1.04,3.31,1.77-.43.58-.85,1.16-1.28,1.74Z"/>
      <path class="cls-2" d="M87.98,149.96v-29.01c1.88-.02,3.76-.03,5.64-.05v11.18c.91-.75,1.92-1.35,3.01-1.81,1.1-.46,2.38-.69,3.86-.7,1.28,0,2.41.18,3.4.55.99.37,1.82.89,2.48,1.57.66.67,1.16,1.48,1.51,2.42.34.94.51,1.97.51,3.1v12.85c-1.88,0-3.76-.01-5.64-.02v-12.83c0-1.23-.33-2.18-.99-2.86-.66-.67-1.66-1.01-2.98-1.01-.98,0-1.89.19-2.74.57-.85.38-1.66.9-2.42,1.55v14.53c-1.88,0-3.76-.02-5.64-.03Z"/>
      <path class="cls-2" d="M132.31,150.06c-.85,0-1.69,0-2.54,0-.53,0-.95-.07-1.26-.21-.3-.14-.53-.42-.68-.84-.17-.48-.33-.96-.5-1.44-.59.46-1.18.87-1.75,1.21-.57.35-1.16.64-1.77.88-.61.24-1.26.41-1.94.53-.69.12-1.45.18-2.28.18-.99,0-1.9-.12-2.74-.35-.84-.23-1.56-.58-2.16-1.04-.6-.46-1.07-1.04-1.4-1.72-.34-.69-.5-1.48-.5-2.39,0-.76.23-1.52.7-2.26.46-.74,1.24-1.42,2.32-2.02,1.08-.6,2.52-1.1,4.32-1.49,1.8-.39,4.03-.59,6.69-.59v-1.19c0-1.36-.33-2.37-.99-3.03-.66-.65-1.62-.98-2.89-.98-.91,0-1.68.09-2.28.28-.61.18-1.14.39-1.59.62-.45.23-.86.44-1.24.62-.38.18-.8.28-1.26.28-.38,0-.71-.08-.98-.26-.27-.17-.49-.38-.66-.63-.34-.52-.68-1.04-1.03-1.56,2.7-2.13,5.94-3.2,9.75-3.2,1.37,0,2.59.19,3.67.58,1.07.39,1.98.93,2.73,1.62.75.69,1.31,1.52,1.7,2.47.39.96.58,2.01.58,3.16v12.77ZM121.35,147.03c.58,0,1.11-.04,1.6-.14.49-.09.95-.23,1.38-.41.43-.18.85-.41,1.26-.67.4-.27.81-.58,1.22-.94v-3.39c-1.64,0-3.02.09-4.12.27-1.1.18-1.99.41-2.66.68-.67.28-1.15.6-1.43.97-.28.37-.42.77-.42,1.21,0,.86.29,1.48.88,1.85.59.37,1.35.56,2.3.56Z"/>
      <path class="cls-2" d="M153.34,133.53c.48,0,.96,0,1.44,0,.58,0,1.06-.07,1.44-.2.38-.14.71-.35.98-.65,3.04-3.29,6.07-6.56,9.11-9.81.38-.41.78-.7,1.2-.85.42-.16.95-.23,1.59-.23,1.77.02,3.53.04,5.3.06-3.71,3.84-7.41,7.71-11.12,11.61-.35.36-.68.67-1,.92-.32.25-.66.45-1.03.6.5.16.96.38,1.36.67.4.29.8.65,1.18,1.09,3.82,4.41,7.64,8.79,11.46,13.13-1.81.01-3.62.03-5.43.04-.73,0-1.27-.08-1.63-.25-.36-.17-.66-.43-.9-.76-3.11-3.45-6.23-6.92-9.34-10.4-.3-.34-.65-.58-1.03-.73-.38-.15-.92-.23-1.62-.23-.65,0-1.29,0-1.94,0v12.47c-2.05,0-4.1.02-6.14.02v-28.43c2.05.01,4.1.02,6.14.04v11.9Z"/>
      <path class="cls-2" d="M178.55,149.84v-28.71c1.88.03,3.76.05,5.64.08v10.98c.91-.73,1.92-1.31,3.01-1.75,1.1-.44,2.38-.65,3.86-.64,1.28.01,2.41.2,3.4.57.99.37,1.82.88,2.48,1.54.66.66,1.16,1.44,1.51,2.34.34.91.51,1.9.51,2.99v12.38c-1.88.02-3.76.04-5.64.06,0-4.15,0-8.3,0-12.45,0-1.2-.33-2.12-.99-2.78-.66-.66-1.66-.99-2.98-1-.97,0-1.89.18-2.74.54-.85.37-1.66.87-2.42,1.51v14.27c-1.88.02-3.76.03-5.64.05Z"/>
      <path class="cls-2" d="M222.87,149.3c-.85.01-1.69.03-2.53.04-.53,0-.95-.05-1.26-.17-.3-.12-.53-.38-.68-.78-.17-.45-.33-.9-.5-1.35-.59.44-1.18.83-1.75,1.16-.57.34-1.16.62-1.77.85-.61.23-1.26.41-1.94.53-.69.12-1.45.19-2.28.2-.99.01-1.9-.08-2.74-.29-.84-.21-1.56-.53-2.16-.96-.6-.43-1.07-.98-1.4-1.63-.33-.65-.5-1.41-.5-2.29,0-.73.23-1.46.7-2.17.46-.71,1.24-1.36,2.32-1.93,1.08-.57,2.52-1.05,4.32-1.43,1.8-.38,4.03-.56,6.69-.56v-1.12c0-1.28-.33-2.23-.99-2.85-.66-.62-1.62-.94-2.89-.95-.91,0-1.67.08-2.28.25-.61.17-1.14.36-1.59.58-.45.22-.86.41-1.24.58-.38.17-.8.26-1.26.26-.38,0-.71-.08-.98-.25-.27-.16-.49-.37-.66-.61-.34-.5-.68-.99-1.03-1.49,2.69-2.02,5.94-2.99,9.75-2.94,1.37.02,2.59.21,3.66.59,1.07.38,1.98.89,2.73,1.54.74.65,1.31,1.43,1.7,2.32.39.9.58,1.88.58,2.95v11.91ZM211.91,146.59c.58,0,1.11-.05,1.6-.14.49-.09.95-.22,1.38-.4.43-.18.85-.39,1.26-.64.4-.25.81-.55,1.22-.9v-3.18c-1.64,0-3.02.1-4.12.27-1.1.17-1.99.39-2.66.66-.67.27-1.15.58-1.43.93-.28.35-.42.74-.42,1.15,0,.82.29,1.4.88,1.75.59.35,1.35.51,2.29.51Z"/>
      <path class="cls-2" d="M228.41,149.21v-18.7c1.15.02,2.3.03,3.45.05.73.01,1.21.29,1.44.83.13.49.26.98.39,1.47.47-.38.97-.72,1.5-1.03.53-.31,1.08-.57,1.67-.79.59-.22,1.21-.38,1.88-.49.67-.11,1.4-.16,2.19-.15,1.28.02,2.41.21,3.4.56.99.35,1.81.83,2.48,1.45.66.61,1.16,1.34,1.51,2.18.34.84.51,1.77.51,2.77v11.48c-1.88.04-3.76.07-5.64.11v-11.61c0-1.11-.33-1.98-.99-2.59-.66-.62-1.65-.93-2.98-.94-.97,0-1.89.16-2.74.5-.85.34-1.66.81-2.42,1.41v13.4c-1.88.03-3.76.06-5.64.1Z"/>
    </g>
    <text class="cls-1" transform="translate(42.97 167.19) scale(1.35 1)"><tspan x="0" y="0">Turning Properties into Prosperity</tspan></text>
    <text class="cls-3" transform="translate(0 73.39) scale(1.57 1)"><tspan x="0" y="0">E</tspan><tspan class="cls-5" x="4.71" y="0">S</tspan><tspan x="8.53" y="0">T</tspan></text>
    <text class="cls-3" transform="translate(218.68 73.32) scale(1.57 1)"><tspan x="0" y="0">2021</tspan></text>
  </g>
</svg>