<?xml version="1.0" encoding="UTF-8"?>
<svg id="Layer_2" data-name="Layer 2" xmlns="http://www.w3.org/2000/svg" viewBox="0 0 97 110">
  <defs>
    <style>
      .cls-1 {
        fill: #fefefe;
      }

      .cls-1, .cls-2, .cls-3, .cls-4, .cls-5 {
        stroke-width: 0px;
      }

      .cls-2 {
        fill: #b33700;
      }

      .cls-3 {
        fill: #2c3581;
      }

      .cls-4 {
        fill: #ff6717;
      }

      .cls-5 {
        fill: #443b96;
      }
    </style>
  </defs>
  <g id="Layer_1-2" data-name="Layer 1">
    <g>
      <path class="cls-1" d="M0,109.4V1.44C0,.14.32,0,1.51,0h93.93c1.44,0,1.56.4,1.56,1.62v52.92c-.15.13-.38.13-.53,0-1.18-1.8-2.15-3.73-2.88-5.75-6.3-13.66-12.66-27.31-18.91-40.98-.81-1.77-1.67-3.52-2.45-5.32-.41-1.08-1.5-1.75-2.65-1.65-12.27.03-24.54.03-36.81.01-.62,0-1.3-.09-1.62.68-3.14,10.75-6.1,21.56-9.14,32.36-4.16,14.78-8.32,29.55-12.48,44.33-2.65,9.53-5.37,19.03-7.99,28.58-.18.9-.52,1.77-1,2.56-.1.16-.3.2-.46.11-.03-.02-.06-.04-.08-.07Z"/>
      <path class="cls-1" d="M97,55.38v53.18c0,1.18-.23,1.44-1.43,1.44h-54.47c-.08-.08-.11-.19-.1-.3v-.16c4.53-3.95,8.56-8.35,12.85-12.53,6.47-6.3,12.85-12.76,19.29-19.02,5.17-4.89,9.89-9.96,14.97-14.6,2.71-2.53,5.32-5.17,8.01-7.73.24-.26.56-.47.89-.27Z"/>
      <path class="cls-3" d="M96.77,54.65h0c-.61-.16-1.24-.22-1.87.35h-35.24c-.69-.58-1.37-.56-2.06-.47-.52.1-1.22,0-1.18.89.87.5,1.89.67,2.87.58h34.9c.74-.08,1.48-.15,2.21-.29h0l.26-.42s.06-.1.33-.16v-.29c-.26-.07-.25-.14-.23-.2Z"/>
      <path class="cls-5" d="M40.97,109.58c.01.11-.03.21-.1.42H1.87c-.45-.13-1.06.26-1.37-.45.1-.02.2-.02.3,0,.19-.13.4-.25.62-.33.79-.15,1.59-.21,2.39-.22h34.24c.99-.02,2.08-.28,2.92.58Z"/>
      <path class="cls-4" d="M96.47,54.63c-.54.63-1.28.37-1.92.37h-36.19c-.66,0-1.42-.24-1.95.34-.21.16-.51.16-.73,0-2.85-6.1-5.58-12.21-8.42-18.29-3.02-6.51-5.98-13.03-8.99-19.54-2.15-4.64-4.27-9.32-6.45-13.95-.22-.51-.34-1.06-.37-1.61,0-.36-.54-.93.36-.95h38.57c.87,0,1.54,0,2.01,1.04,7.92,17.34,15.88,34.66,23.87,51.96.09.2.21.41.21.63Z"/>
      <path class="cls-2" d="M31.15,1.97c2.72,5.84,5.48,11.59,8.12,17.41,2.99,6.45,5.91,12.94,8.88,19.38,2.33,4.99,4.67,9.99,6.93,15.05.28.69.52,1.4.7,2.13.32.83-.33,1.28-.79,1.74-8.05,8.18-16.46,16-24.55,24.13-1.78,1.78-3.71,3.44-5.46,5.23-7.27,7.35-14.96,14.3-22.18,21.78-.48.49-1.05.9-1.67,1.19h-.33c2.87-10.38,5.75-20.75,8.62-31.12C16.5,53.7,23.57,28.53,30.65,3.39c.14-.48.31-.96.5-1.42Z"/>
      <path class="cls-4" d="M.72,109.99c4.41-4.61,8.96-9.12,13.66-13.53,4.2-3.97,8.22-8.13,12.33-12.19,5.84-5.68,11.49-11.43,17.4-16.99,3.69-3.47,7.23-7.11,10.89-10.63.57-.41,1-.98,1.23-1.65h38.15c.66,0,1.43-.26,1.93.36-5.81,5.73-11.63,11.46-17.44,17.18-8.33,8.16-16.68,16.28-25.03,24.34l-11.64,11.46c-.32.3-.54.77-1.12.66l-30.55,1H.72Z"/>
    </g>
  </g>
</svg>