<?xml version="1.0" encoding="UTF-8"?>
<svg id="Layer_2" data-name="Layer 2" xmlns="http://www.w3.org/2000/svg" viewBox="0 0 354 189.14">
  <defs>
    <style>
      .cls-1 {
        fill: #2e3192;
      }

      .cls-1, .cls-2 {
        stroke-width: 0px;
      }

      .cls-2 {
        fill: #a3062a;
      }
    </style>
  </defs>
  <g id="Layer_1-2" data-name="Layer 1">
    <path class="cls-2" d="M21.91,80.89H6.74c-1.26,0-2.29.14-3.08.41-.79.27-1.42.73-1.89,1.37-.47.64-.82,1.53-1.03,2.68h-.34v-5.63h25.96v.61l-21.95,29.05h15.22c1.69,0,3.02-.17,3.97-.52.95-.35,1.64-.78,2.06-1.31.42-.52.85-1.24,1.29-2.16h.34l-1.49,5.14H0v-.65l21.91-28.99Z"/>
    <path class="cls-2" d="M67.1,79.34l9.49,26.39c.5,1.37.98,2.36,1.42,2.97.44.61.87,1,1.28,1.16.41.16.93.27,1.56.32v.33h-10.35v-.33c1.06,0,1.88-.1,2.45-.29.57-.2.86-.72.86-1.59,0-.47-.14-1.11-.41-1.9-.06-.11-.09-.2-.09-.25l-2.82-8.18h-10.98l-2.52,7.57c-.34,1.03-.52,1.86-.52,2.49,0,.86.22,1.44.67,1.73.44.29,1.08.43,1.89.43v.33h-7.45v-.33c1.06-.1,1.91-.49,2.55-1.18.64-.69,1.19-1.74,1.67-3.15l8.95-26.52h2.32ZM59.89,96.87h10.09l-5.17-14.62h-.09l-4.84,14.62Z"/>
    <path class="cls-2" d="M29.63,80.08v-.36h18.9v4.85h-.3c0-2.59-1.78-3.89-5.34-3.89h-6.61v13.99h5.81c1.15,0,2.17-.18,3.08-.54.9-.36,1.42-1.19,1.55-2.49h.32v6.99h-.32c-.13-.79-.37-1.4-.73-1.83-.36-.43-.71-.71-1.07-.85-.35-.14-.66-.21-.94-.21-.52-.08-1.05-.13-1.61-.13h-6.09v10.94c0,.82.16,1.53.48,2.13.32.6,1.07.9,2.25.9h4.71c1.13,0,2.07-.16,2.8-.48.73-.32,1.31-.77,1.73-1.34.42-.57.78-1.26,1.07-2.07h.3l-1.1,4.83h-18.9v-.33h.43c.67,0,1.33-.26,1.98-.79.65-.53.97-1.39.97-2.59v-23.21c0-.95-.22-1.77-.66-2.47-.44-.7-1.2-1.05-2.29-1.05h-.43Z"/>
    <path class="cls-2" d="M108.41,79.72v.36c-.89.06-1.68.16-2.36.31-.68.15-1.37.54-2.06,1.15-.5.46-.84.77-1.02.92-.18.15-.38.33-.59.52l-10.8,10.37,12.91,14.18c1,1.09,1.86,1.77,2.57,2.05.71.28,1.62.48,2.72.61v.33h-6.84l-14.18-15.58v11.86c0,2.19,1.13,3.32,3.4,3.39v.33h-10.05v-.33c.63-.03,1.19-.14,1.68-.35.49-.2.89-.55,1.22-1.05.32-.49.48-1.16.48-2v-23.38c0-1.3-.33-2.17-1-2.62-.67-.45-1.46-.69-2.38-.72v-.36h10.05v.36c-2.27.07-3.4,1.19-3.4,3.35v11.38l12.16-11.82s.03-.01.09-.13c.67-.6,1.01-1.12,1.01-1.55,0-.49-.2-.79-.59-.92-.39-.13-.99-.23-1.78-.31v-.36h8.76Z"/>
    <path class="cls-2" d="M111.59,80.08v-.36h18.9v4.85h-.3c0-2.59-1.78-3.89-5.34-3.89h-6.61v13.99h5.81c1.15,0,2.17-.18,3.08-.54.9-.36,1.42-1.19,1.55-2.49h.32v6.99h-.32c-.13-.79-.37-1.4-.73-1.83-.36-.43-.71-.71-1.07-.85-.35-.14-.66-.21-.94-.21-.52-.08-1.05-.13-1.61-.13h-6.09v10.94c0,.82.16,1.53.48,2.13.32.6,1.07.9,2.25.9h4.71c1.13,0,2.07-.16,2.8-.48.73-.32,1.31-.77,1.73-1.34.42-.57.78-1.26,1.07-2.07h.3l-1.1,4.83h-18.9v-.33h.43c.67,0,1.33-.26,1.98-.79.65-.53.97-1.39.97-2.59v-23.21c0-.95-.22-1.77-.66-2.47-.44-.7-1.2-1.05-2.29-1.05h-.43Z"/>
    <path class="cls-2" d="M209,83.44v.36c-.89.06-1.68.16-2.36.31-.68.15-1.37.54-2.06,1.15-.5.46-.84.77-1.02.92-.18.15-.38.33-.59.52l-10.8,10.37,12.91,14.18c1,1.09,1.86,1.77,2.57,2.05.71.28,1.62.48,2.72.61v.33h-6.84l-14.18-15.58v11.86c0,2.19,1.13,3.32,3.4,3.39v.33h-10.05v-.33c.63-.03,1.19-.14,1.68-.35.49-.2.89-.55,1.22-1.05.32-.49.48-1.16.48-2v-23.38c0-1.3-.33-2.17-1-2.62-.67-.45-1.46-.69-2.38-.72v-.36h10.05v.36c-2.27.07-3.4,1.19-3.4,3.35v11.38l12.16-11.82s.03-.01.09-.13c.67-.6,1.01-1.12,1.01-1.55,0-.49-.2-.79-.59-.92-.39-.13-.99-.23-1.78-.31v-.36h8.76Z"/>
    <path class="cls-2" d="M236.95,97.54v-10.31c0-1-.28-1.83-.84-2.47-.56-.64-1.43-.96-2.6-.96v-.36h10.09v.36c-1.18,0-2.04.32-2.58.95-.55.63-.82,1.46-.82,2.48v23.3c0,2.26,1.13,3.39,3.4,3.39v.33h-10.09v-.33c1.08,0,1.92-.28,2.53-.85.61-.56.91-1.4.91-2.5v-12.09h-18.17v12.05c0,1.07.31,1.91.94,2.5.62.59,1.46.89,2.51.89v.33h-10.09v-.33c1.09,0,1.93-.3,2.51-.89.58-.59.87-1.43.87-2.5v-23.3c0-2.29-1.13-3.43-3.38-3.43v-.36h10.09v.36c-1.19,0-2.06.32-2.62.95-.55.63-.83,1.46-.83,2.48v10.31h18.17Z"/>
    <path class="cls-2" d="M261.08,83.07l9.49,26.39c.5,1.37.98,2.36,1.42,2.97.44.61.87,1,1.28,1.16.41.16.93.27,1.56.32v.33h-10.35v-.33c1.06,0,1.88-.1,2.45-.29.57-.2.86-.72.86-1.59,0-.47-.14-1.11-.41-1.9-.06-.11-.09-.2-.09-.25l-2.82-8.18h-10.98l-2.52,7.57c-.34,1.03-.52,1.86-.52,2.49,0,.86.22,1.44.67,1.73.44.29,1.08.43,1.89.43v.33h-7.45v-.33c1.06-.1,1.91-.49,2.55-1.18.64-.69,1.19-1.74,1.67-3.15l8.95-26.52h2.32ZM253.87,100.59h10.09l-5.17-14.62h-.09l-4.84,14.62Z"/>
    <path class="cls-2" d="M309.79,83.44v.36c-.8.1-1.44.25-1.9.45-.47.2-.83.6-1.09,1.19-.26.59-.39,1.45-.39,2.56v27.02h-.22l-24.34-26.39v18.95c0,1.58.06,2.75.19,3.51.13.77.32,1.32.56,1.65.53.73,1.46,1.12,2.78,1.17v.33h-7.94v-.33c.89-.04,1.58-.23,2.08-.55.5-.33.85-.93,1.05-1.8.21-.87.31-2.19.31-3.94v-20.1l-1.05-1.15c-.93-1.03-1.68-1.68-2.24-1.96s-1.26-.48-2.09-.62v-.36h5.96l23.98,26.1v-19.89c0-1.49-.06-2.61-.18-3.35-.12-.74-.44-1.33-.97-1.78-.52-.45-1.35-.69-2.46-.73v-.36h7.96Z"/>
    <path class="cls-1" d="M187.84,165.74v-4.37h4.66v-6.33h-11.21v4.47h-2.59v-4.47h-8.45v4.47h-4.56v-80.36l-5.75.1v-.1h5.75v-20.29c7.19-4.26,0-9.22,0-9.22v-4.69c5.27-1.42,0-4.02,0-4.02v-3.21c9.93,8.03,18.3,3.42,22.52-2.33,3.11-4.24,3.35-12.56,3.35-12.56-1.52-16.58-9.99-20.77-15.81-22.32-8.87-2.37-15.81,4.19-15.81,4.19,0,0-6.94-6.55-15.81-4.19-5.82,1.55-14.29,5.74-15.81,22.32,0,0,.25,8.32,3.35,12.56,4.21,5.75,12.59,10.36,22.52,2.33v3.4s-5.27,2.61,0,4.02v4.69s-7.19,4.95,0,9.22v20.29l1.19,105.75c7.42,9.11,10.31,0,10.31,0v-11.43h4.56v4.47h8.45v-4.47h2.59v4.47h11.21v-6.33h-4.66v-6.05ZM153.71,30.28s1.44-13.95-6.23-10.7c-7.67,3.26-2.4,13.95.48,6.05,0,0,3.35-1.4,1.44,4.19-1.92,5.58-16.77,6.51-14.37-12.09,0,0,5.27-19.07,24.91-3.89,19.64-15.18,24.91,3.89,24.91,3.89,2.4,18.6-12.46,17.67-14.37,12.09-1.92-5.58,1.44-4.19,1.44-4.19,2.87,7.91,8.14-2.79.48-6.05-7.67-3.26-6.23,10.7-6.23,10.7l-6.23-2.72-6.23,2.72Z"/>
    <path class="cls-2" d="M84.92,119.81h-.07c-.04-.29-.17-.55-.39-.77-.22-.22-.52-.33-.88-.33-.24,0-.45.05-.64.16s-.33.26-.43.45-.15.4-.15.65c0,.19.03.36.09.5s.15.27.27.39.26.22.42.31c.16.1.38.22.65.37.45.24.81.48,1.06.73.25.24.38.57.38.99,0,.26-.07.5-.2.74s-.34.43-.62.59-.62.23-1.02.23c-.26,0-.48-.03-.68-.08-.2-.05-.4-.13-.6-.22-.08-.03-.14-.04-.17-.04-.06,0-.1.02-.12.06s-.04.13-.07.27h-.07v-1.51h.07c.1.44.3.78.59,1s.65.34,1.07.34c.31,0,.57-.06.76-.17s.32-.25.39-.42.11-.33.11-.49c0-.34-.11-.61-.32-.83s-.53-.43-.97-.66c-.3-.16-.52-.28-.66-.37s-.29-.2-.44-.34-.26-.3-.35-.49-.13-.41-.13-.65c0-.28.08-.56.23-.81s.37-.47.66-.62c.28-.16.6-.24.96-.24.27,0,.55.05.84.14.04.02.11.03.18.03.09,0,.16-.06.19-.18h.07v1.29Z"/>
    <path class="cls-2" d="M85.77,118.72v-.07h3.7v.95h-.06c0-.51-.35-.76-1.04-.76h-1.29v2.74h1.14c.22,0,.43-.04.6-.11s.28-.23.3-.49h.06v1.37h-.06c-.03-.16-.07-.27-.14-.36s-.14-.14-.21-.17-.13-.04-.18-.04c-.1-.02-.21-.02-.32-.02h-1.19v2.14c0,.16.03.3.09.42s.21.18.44.18h.92c.22,0,.4-.03.55-.09s.26-.15.34-.26.15-.25.21-.41h.06l-.21.95h-3.7v-.07h.08c.13,0,.26-.05.39-.16s.19-.27.19-.51v-4.54c0-.19-.04-.35-.13-.48s-.24-.2-.45-.2h-.08Z"/>
    <path class="cls-2" d="M95.77,120h-.07c-.05-.29-.2-.54-.43-.75s-.5-.35-.8-.45c-.3-.09-.58-.14-.84-.14-.36,0-.69.07-1,.22s-.58.35-.81.62c-.23.27-.4.59-.53.96-.13.37-.19.78-.19,1.21s.06.82.18,1.18c.12.36.3.68.53.94.23.27.51.47.81.6s.65.2,1.03.2c.31,0,.66-.06,1.04-.19.38-.12.72-.33,1.02-.62v.23c-.37.28-.72.49-1.03.62s-.7.2-1.16.2c-.49,0-.93-.09-1.34-.26-.4-.17-.74-.41-1.02-.7s-.49-.63-.63-.99-.21-.75-.21-1.14c0-.59.15-1.13.45-1.63.3-.5.7-.9,1.21-1.19s1.06-.44,1.65-.44c.37,0,.76.05,1.17.16l.44.12c.08.02.16.02.21.02.11,0,.18-.02.22-.05.04-.03.06-.09.08-.17h.07l-.06,1.44Z"/>
    <path class="cls-2" d="M102.5,124.68h-1.3v-1l-.02-.02c-.18.41-.45.7-.81.89s-.73.28-1.12.28c-.44,0-.84-.1-1.19-.31s-.61-.46-.78-.76c-.12-.21-.19-.43-.22-.67-.03-.23-.05-.47-.05-.72v-3c0-.18-.04-.33-.11-.45s-.25-.2-.53-.22v-.07h1.95v.07c-.29.03-.47.11-.55.24s-.12.27-.12.43v2.95c0,.6.06,1.04.19,1.33.13.31.34.54.61.72s.58.26.92.26c.14,0,.31-.02.51-.07s.38-.13.55-.25c.51-.34.77-.89.77-1.64v-3.29c0-.17-.04-.31-.12-.44s-.26-.2-.56-.23v-.07h1.98v.07c-.29.01-.47.09-.55.23s-.12.29-.12.43v4.57c0,.16.03.28.08.37s.13.16.23.19.22.07.36.09v.07Z"/>
    <path class="cls-2" d="M103.18,118.74h-.08v-.09h2.15c.35,0,.64.05.88.16s.43.24.56.4c.13.16.23.33.29.51s.09.35.09.52c0,.22-.05.43-.14.63-.09.2-.24.37-.43.52s-.44.24-.73.29v.02c.37.17.71.52,1.03,1.04l.56.92c.25.41.46.67.61.78s.3.17.45.18v.07h-1.13c-.05-.06-.09-.12-.13-.17s-.09-.12-.13-.18c-.03-.04-.07-.1-.12-.19-.05-.08-.09-.13-.1-.14l-.74-1.19c-.15-.24-.3-.44-.46-.59-.16-.15-.3-.26-.44-.33s-.26-.11-.36-.12-.24-.02-.38-.02v2.21c0,.43.22.65.67.66v.07h-1.97v-.07c.12,0,.23-.03.33-.07s.17-.11.24-.2.09-.23.09-.39v-4.56c0-.24-.06-.41-.18-.51s-.25-.15-.4-.15ZM104.39,121.59h.35c.37,0,.67-.05.91-.16s.41-.25.52-.44c.11-.19.16-.43.16-.71,0-.23-.05-.46-.14-.68-.1-.22-.26-.41-.49-.56-.23-.15-.54-.23-.92-.23-.16,0-.29.01-.39.04v2.74Z"/>
    <path class="cls-2" d="M110.74,118.65v.07c-.19,0-.34.05-.47.15s-.19.27-.19.5v4.57c0,.23.07.4.21.51s.29.16.46.16v.07h-1.97v-.07c.18,0,.33-.05.47-.15.13-.1.2-.27.2-.51v-4.57c0-.25-.07-.42-.2-.52s-.29-.14-.47-.14v-.07h1.97Z"/>
    <path class="cls-2" d="M117.79,118.65v.07c-.16.02-.28.05-.37.09s-.16.12-.21.23c-.05.12-.08.28-.08.5v5.29h-.04l-4.76-5.16v3.71c0,.31.01.54.04.69s.06.26.11.32c.1.14.28.22.54.23v.07h-1.55v-.07c.17,0,.31-.04.41-.11s.17-.18.21-.35.06-.43.06-.77v-3.93l-.21-.23c-.18-.2-.33-.33-.44-.38-.11-.05-.25-.09-.41-.12v-.07h1.17l4.69,5.11v-3.89c0-.29-.01-.51-.04-.65s-.09-.26-.19-.35-.26-.14-.48-.14v-.07h1.56Z"/>
    <path class="cls-2" d="M124.05,119.9h-.07c-.09-.39-.33-.7-.72-.91-.39-.22-.83-.33-1.33-.33-.26,0-.54.04-.83.12-.3.08-.58.22-.87.42s-.51.5-.7.89c-.19.39-.28.88-.28,1.47,0,.94.23,1.69.68,2.25s1.17.84,2.17.84c.39,0,.68-.03.87-.08s.3-.12.36-.21.08-.21.08-.36v-1.1c0-.26-.06-.44-.17-.52s-.29-.14-.52-.17v-.07h2.02v.07c-.19.02-.33.06-.43.12-.1.06-.17.13-.2.23s-.05.22-.05.37v1.68c-.62.16-1.25.24-1.91.24-.34,0-.68-.03-1.01-.08s-.68-.18-1.04-.36-.68-.47-.95-.83c-.41-.55-.62-1.18-.62-1.88,0-.41.08-.8.23-1.19s.38-.73.67-1.03c.29-.3.65-.54,1.08-.72.42-.18.89-.26,1.41-.26.2,0,.39.01.59.04s.48.08.85.16c.15.03.26.05.32.05.14,0,.24-.07.3-.2h.07v1.38Z"/>
    <path class="cls-2" d="M133.74,120.73v.07c-.21,0-.38.05-.51.12s-.24.19-.34.35-.2.37-.31.63c-.12.3-.22.54-.31.72s-.16.32-.23.42-.13.19-.19.27c.02.02.12.11.32.28s.35.31.49.43c.31.25.54.41.71.48s.34.11.51.11v.07h-1.31c-.48-.37-.84-.67-1.08-.89-.16.2-.4.43-.73.66-.33.24-.71.35-1.16.35-.24,0-.46-.04-.66-.12s-.38-.19-.53-.34c-.15-.15-.27-.31-.35-.5-.08-.18-.12-.38-.12-.57,0-.39.12-.73.37-1.04.24-.3.54-.57.89-.79l-.06-.06c-.26-.28-.46-.53-.6-.77-.14-.23-.22-.48-.22-.73s.07-.48.2-.69c.14-.22.32-.39.57-.52s.51-.2.81-.2c.39,0,.71.11.95.32.24.21.36.47.36.78,0,.35-.14.65-.41.92-.28.27-.61.52-1,.75.14.16.37.39.67.7l.61.62c.24.24.45.45.63.61.15-.22.31-.54.48-.95s.26-.75.26-1.01c0-.17-.05-.28-.14-.33s-.21-.08-.35-.09v-.07h1.76ZM129.31,121.59c-.58.38-.87.83-.87,1.34,0,.26.07.51.22.73s.34.39.58.51.48.18.72.18c.21,0,.41-.04.59-.11s.33-.16.45-.25.24-.2.37-.32c-.24-.22-.43-.4-.55-.52-.13-.12-.26-.26-.4-.4s-.29-.29-.45-.46-.37-.4-.65-.7ZM129.69,121.11c.3-.19.54-.38.72-.59s.28-.45.28-.75c0-.17-.04-.34-.13-.51s-.21-.3-.37-.4-.34-.15-.54-.15c-.28,0-.49.08-.64.24s-.22.35-.22.57c0,.15.05.32.14.52s.21.38.35.57.28.35.41.49Z"/>
    <path class="cls-2" d="M188.25,123.07h-.07c-.04-.29-.17-.55-.39-.77-.22-.22-.52-.33-.88-.33-.24,0-.45.05-.64.16s-.33.26-.43.45-.15.4-.15.65c0,.19.03.36.09.5s.15.27.27.39.26.22.42.31c.16.1.38.22.65.37.45.24.81.48,1.06.73.25.24.38.57.38.99,0,.26-.07.5-.2.74s-.34.43-.62.59-.62.23-1.02.23c-.26,0-.48-.03-.68-.08-.2-.05-.4-.13-.6-.22-.08-.03-.14-.04-.17-.04-.06,0-.1.02-.12.06s-.04.13-.07.27h-.07v-1.51h.07c.1.44.3.78.59,1s.65.34,1.07.34c.31,0,.57-.06.76-.17s.32-.25.39-.42.11-.33.11-.49c0-.34-.11-.61-.32-.83s-.53-.43-.97-.66c-.3-.16-.52-.28-.66-.37s-.29-.2-.44-.34-.26-.3-.35-.49-.13-.41-.13-.65c0-.28.08-.56.23-.81s.37-.47.66-.62c.28-.16.6-.24.96-.24.27,0,.55.05.84.14.04.02.11.03.18.03.09,0,.16-.06.19-.18h.07v1.29Z"/>
    <path class="cls-2" d="M195.23,127.94h-1.3v-1l-.02-.02c-.18.41-.45.7-.81.89s-.73.28-1.12.28c-.44,0-.84-.1-1.19-.31s-.61-.46-.78-.76c-.12-.21-.19-.43-.22-.67-.03-.23-.05-.47-.05-.72v-3c0-.18-.04-.33-.11-.45s-.25-.2-.53-.22v-.07h1.95v.07c-.29.03-.47.11-.55.24s-.12.27-.12.43v2.95c0,.6.06,1.04.19,1.33.13.31.34.54.61.72s.58.26.92.26c.14,0,.31-.02.51-.07s.38-.13.55-.25c.51-.34.77-.89.77-1.64v-3.29c0-.17-.04-.31-.12-.44s-.26-.2-.56-.23v-.07h1.98v.07c-.29.01-.47.09-.55.23s-.12.29-.12.43v4.57c0,.16.03.28.08.37s.13.16.23.19.22.07.36.09v.07Z"/>
    <path class="cls-2" d="M199.03,123.07h-.07c-.04-.29-.17-.55-.39-.77-.22-.22-.52-.33-.88-.33-.24,0-.45.05-.64.16s-.33.26-.43.45-.15.4-.15.65c0,.19.03.36.09.5s.15.27.27.39.26.22.42.31c.16.1.38.22.65.37.45.24.81.48,1.06.73.25.24.38.57.38.99,0,.26-.07.5-.2.74s-.34.43-.62.59-.62.23-1.02.23c-.26,0-.48-.03-.68-.08-.2-.05-.4-.13-.6-.22-.08-.03-.14-.04-.17-.04-.06,0-.1.02-.12.06s-.04.13-.07.27h-.07v-1.51h.07c.1.44.3.78.59,1s.65.34,1.07.34c.31,0,.57-.06.76-.17s.32-.25.39-.42.11-.33.11-.49c0-.34-.11-.61-.32-.83s-.53-.43-.97-.66c-.3-.16-.52-.28-.66-.37s-.29-.2-.44-.34-.26-.3-.35-.49-.13-.41-.13-.65c0-.28.08-.56.23-.81s.37-.47.66-.62c.28-.16.6-.24.96-.24.27,0,.55.05.84.14.04.02.11.03.18.03.09,0,.16-.06.19-.18h.07v1.29Z"/>
    <path class="cls-2" d="M205.18,123.09h-.07c-.03-.39-.15-.65-.35-.76s-.46-.17-.76-.17h-1.23v5.06c0,.43.22.65.67.66v.07h-1.97v-.07c.19,0,.34-.06.47-.16s.19-.27.19-.51v-5.06h-1.23c-.3,0-.55.06-.76.17s-.32.37-.36.76h-.07v-1.47h.07c.04.07.08.12.12.15s.08.06.13.08.12.04.19.05.16.01.25.01h4.02c.27,0,.47-.1.62-.3h.07v1.47Z"/>
    <path class="cls-2" d="M208.09,121.84l1.86,5.16c.1.27.19.46.28.58s.17.2.25.23c.08.03.18.05.31.06v.07h-2.03v-.07c.21,0,.37-.02.48-.06s.17-.14.17-.31c0-.09-.03-.22-.08-.37-.01-.02-.02-.04-.02-.05l-.55-1.6h-2.15l-.49,1.48c-.07.2-.1.36-.1.49,0,.17.04.28.13.34s.21.08.37.08v.07h-1.46v-.07c.21-.02.37-.1.5-.23.12-.14.23-.34.33-.62l1.75-5.19h.45ZM206.68,125.27h1.97l-1.01-2.86h-.02l-.95,2.86Z"/>
    <path class="cls-2" d="M213.17,121.91v.07c-.19,0-.34.05-.47.15s-.19.27-.19.5v4.57c0,.23.07.4.21.51s.29.16.46.16v.07h-1.97v-.07c.18,0,.34-.05.47-.15.13-.1.2-.27.2-.51v-4.57c0-.25-.07-.42-.2-.52-.13-.09-.29-.14-.47-.14v-.07h1.97Z"/>
    <path class="cls-2" d="M220.22,121.91v.07c-.16.02-.28.05-.37.09s-.16.12-.21.23c-.05.12-.08.28-.08.5v5.29h-.04l-4.76-5.16v3.71c0,.31.01.54.04.69s.06.26.11.32c.1.14.28.22.54.23v.07h-1.55v-.07c.17,0,.31-.04.41-.11.1-.06.17-.18.21-.35.04-.17.06-.43.06-.77v-3.93l-.21-.23c-.18-.2-.33-.33-.44-.38-.11-.05-.25-.09-.41-.12v-.07h1.17l4.69,5.11v-3.89c0-.29-.01-.51-.04-.65s-.09-.26-.19-.35c-.1-.09-.26-.14-.48-.14v-.07h1.56Z"/>
    <path class="cls-2" d="M222.78,121.91v.07c-.19,0-.34.05-.47.15s-.19.27-.19.5v4.57c0,.23.07.4.21.51s.29.16.46.16v.07h-1.97v-.07c.18,0,.34-.05.47-.15.13-.1.2-.27.2-.51v-4.57c0-.25-.07-.42-.2-.52-.13-.09-.29-.14-.47-.14v-.07h1.97Z"/>
    <path class="cls-2" d="M229.83,121.91v.07c-.16.02-.28.05-.37.09s-.16.12-.21.23c-.05.12-.08.28-.08.5v5.29h-.04l-4.76-5.16v3.71c0,.31.01.54.04.69s.06.26.11.32c.1.14.28.22.54.23v.07h-1.55v-.07c.17,0,.31-.04.41-.11.1-.06.17-.18.21-.35.04-.17.06-.43.06-.77v-3.93l-.21-.23c-.18-.2-.33-.33-.44-.38-.11-.05-.25-.09-.41-.12v-.07h1.17l4.69,5.11v-3.89c0-.29-.01-.51-.04-.65s-.09-.26-.19-.35c-.1-.09-.26-.14-.48-.14v-.07h1.56Z"/>
    <path class="cls-2" d="M236.1,123.16h-.07c-.09-.39-.33-.7-.72-.91-.39-.22-.83-.33-1.33-.33-.26,0-.54.04-.83.12-.3.08-.58.22-.87.42s-.51.5-.7.89c-.19.39-.28.88-.28,1.47,0,.94.23,1.69.68,2.25.45.56,1.17.84,2.17.84.39,0,.68-.03.87-.08s.3-.12.36-.21c.05-.09.08-.21.08-.36v-1.1c0-.26-.06-.44-.17-.52s-.29-.14-.52-.17v-.07h2.02v.07c-.19.02-.33.06-.43.12-.1.06-.17.13-.2.23s-.05.22-.05.37v1.68c-.62.16-1.25.24-1.91.24-.34,0-.68-.03-1.01-.08s-.68-.18-1.04-.36-.68-.47-.95-.83c-.41-.55-.62-1.18-.62-1.88,0-.41.08-.8.23-1.19.16-.38.38-.73.67-1.03.29-.3.65-.54,1.08-.72.42-.18.89-.26,1.41-.26.2,0,.39.01.59.04s.48.08.85.16c.15.03.26.05.32.05.14,0,.24-.07.3-.2h.07v1.38Z"/>
    <path class="cls-2" d="M245.56,121.91v.07c-.19,0-.35.05-.5.13s-.26.17-.34.26-.17.2-.26.32l-1.45,2.12v2.41c0,.22.07.38.2.48.13.11.29.16.48.17v.07h-1.97v-.07c.2,0,.36-.06.47-.17.12-.11.17-.27.17-.49v-2.31l-1.58-2.3c-.17-.25-.32-.41-.45-.5s-.31-.13-.54-.13v-.07h2.2v.07c-.22,0-.37.06-.43.14-.06.09-.09.17-.09.24,0,.09.05.21.16.37l1.29,1.86,1.15-1.68c.17-.25.26-.44.26-.58,0-.09-.02-.17-.07-.22-.05-.05-.09-.09-.14-.1s-.1-.03-.15-.04v-.07h1.57Z"/>
    <path class="cls-2" d="M252.11,124.93c0,.56-.14,1.09-.43,1.58s-.68.87-1.18,1.16c-.5.29-1.05.43-1.65.43s-1.16-.14-1.67-.43c-.51-.29-.9-.68-1.19-1.16-.29-.49-.44-1.02-.44-1.6,0-.44.09-.86.26-1.25.17-.39.41-.73.72-1.02.31-.29.66-.51,1.06-.67.4-.16.81-.24,1.24-.24s.83.08,1.22.23c.39.15.74.37,1.05.66.31.29.55.63.73,1.02s.27.82.27,1.29ZM251.37,124.95c0-.8-.15-1.43-.44-1.88s-.63-.76-1.01-.91c-.38-.15-.74-.23-1.08-.23-.26,0-.53.04-.81.12-.28.08-.55.24-.82.46-.27.22-.48.53-.66.93s-.26.9-.26,1.49c0,.52.07.97.21,1.36.14.39.34.7.58.95.25.24.52.42.82.53.3.11.61.16.93.16.29,0,.58-.05.88-.15.3-.1.57-.26.81-.49.25-.22.44-.53.6-.92.15-.39.23-.86.23-1.41Z"/>
    <path class="cls-2" d="M259.01,127.94h-1.3v-1l-.02-.02c-.18.41-.45.7-.81.89-.36.19-.73.28-1.12.28-.44,0-.84-.1-1.19-.31-.35-.2-.61-.46-.78-.76-.12-.21-.19-.43-.22-.67-.03-.23-.05-.47-.05-.72v-3c0-.18-.04-.33-.11-.45s-.25-.2-.53-.22v-.07h1.95v.07c-.29.03-.47.11-.55.24s-.12.27-.12.43v2.95c0,.6.06,1.04.19,1.33.13.31.34.54.61.72s.58.26.92.26c.14,0,.31-.02.51-.07s.38-.13.55-.25c.51-.34.77-.89.77-1.64v-3.29c0-.17-.04-.31-.12-.44s-.26-.2-.56-.23v-.07h1.98v.07c-.29.01-.47.09-.55.23s-.12.29-.12.43v4.57c0,.16.03.28.08.37.05.09.13.16.23.19.1.04.22.07.36.09v.07Z"/>
    <path class="cls-2" d="M259.68,122h-.08v-.09h2.15c.35,0,.64.05.88.16.24.1.43.24.56.4.13.16.23.33.29.51.06.18.09.35.09.52,0,.22-.05.43-.14.63-.09.2-.24.37-.43.52-.2.14-.44.24-.73.29v.02c.37.17.71.52,1.03,1.04l.56.92c.25.41.46.67.61.78.15.11.3.17.45.18v.07h-1.13c-.05-.06-.09-.12-.13-.17s-.09-.12-.13-.18c-.03-.04-.07-.1-.12-.19-.06-.08-.09-.13-.1-.14l-.74-1.19c-.15-.24-.3-.44-.46-.59-.16-.15-.3-.26-.44-.33s-.26-.11-.36-.12c-.11-.02-.24-.02-.38-.02v2.21c0,.43.22.65.67.66v.07h-1.97v-.07c.12,0,.23-.03.33-.07s.17-.11.24-.2c.06-.1.09-.23.09-.39v-4.56c0-.24-.06-.41-.18-.51s-.25-.15-.4-.15ZM260.9,124.85h.35c.37,0,.67-.05.91-.16.24-.1.41-.25.52-.44.11-.19.16-.43.16-.71,0-.23-.05-.46-.14-.68-.1-.22-.26-.41-.49-.56-.23-.15-.54-.23-.92-.23-.16,0-.29.01-.39.04v2.74Z"/>
    <path class="cls-2" d="M268.22,122h-.08v-.09h2.15c.35,0,.64.05.88.16.24.1.43.24.56.4.13.16.23.33.29.51.06.18.09.35.09.52,0,.22-.05.43-.14.63-.09.2-.24.37-.43.52-.2.14-.44.24-.73.29v.02c.37.17.71.52,1.03,1.04l.56.92c.25.41.46.67.61.78.15.11.3.17.45.18v.07h-1.13c-.05-.06-.09-.12-.13-.17s-.09-.12-.13-.18c-.03-.04-.07-.1-.12-.19-.06-.08-.09-.13-.1-.14l-.74-1.19c-.15-.24-.3-.44-.46-.59-.16-.15-.3-.26-.44-.33s-.26-.11-.36-.12c-.11-.02-.24-.02-.38-.02v2.21c0,.43.22.65.67.66v.07h-1.97v-.07c.12,0,.23-.03.33-.07s.17-.11.24-.2c.06-.1.09-.23.09-.39v-4.56c0-.24-.06-.41-.18-.51s-.25-.15-.4-.15ZM269.43,124.85h.35c.37,0,.67-.05.91-.16.24-.1.41-.25.52-.44.11-.19.16-.43.16-.71,0-.23-.05-.46-.14-.68-.1-.22-.26-.41-.49-.56-.23-.15-.54-.23-.92-.23-.16,0-.29.01-.39.04v2.74Z"/>
    <path class="cls-2" d="M273.8,121.98v-.07h3.7v.95h-.06c0-.51-.35-.76-1.04-.76h-1.29v2.74h1.14c.22,0,.43-.04.6-.11s.28-.23.3-.49h.06v1.37h-.06c-.03-.16-.07-.27-.14-.36s-.14-.14-.21-.17-.13-.04-.18-.04c-.1-.02-.21-.02-.32-.02h-1.19v2.14c0,.16.03.3.09.42.06.12.21.18.44.18h.92c.22,0,.4-.03.55-.09s.26-.15.34-.26c.08-.11.15-.25.21-.41h.06l-.21.95h-3.7v-.07h.08c.13,0,.26-.05.39-.16s.19-.27.19-.51v-4.54c0-.19-.04-.35-.13-.48s-.23-.2-.45-.2h-.08Z"/>
    <path class="cls-2" d="M281.03,121.84l1.86,5.16c.1.27.19.46.28.58s.17.2.25.23c.08.03.18.05.31.06v.07h-2.03v-.07c.21,0,.37-.02.48-.06s.17-.14.17-.31c0-.09-.03-.22-.08-.37-.01-.02-.02-.04-.02-.05l-.55-1.6h-2.15l-.49,1.48c-.07.2-.1.36-.1.49,0,.17.04.28.13.34s.21.08.37.08v.07h-1.46v-.07c.21-.02.37-.1.5-.23.12-.14.23-.34.33-.62l1.75-5.19h.45ZM279.62,125.27h1.97l-1.01-2.86h-.02l-.95,2.86Z"/>
    <path class="cls-2" d="M284.14,127.87h.08c.15,0,.29-.06.4-.17.12-.12.17-.28.17-.49v-4.55c0-.25-.07-.43-.2-.52-.13-.1-.29-.15-.47-.16v-.07h1.98v.07c-.17,0-.33.06-.46.15s-.2.27-.2.53v4.4c0,.26.07.44.2.54s.36.15.66.15h.53c.23,0,.42-.03.56-.08.14-.05.25-.14.33-.25s.16-.27.25-.47h.07l-.24.99h-3.69v-.07Z"/>
    <path class="cls-2" d="M291.31,121.98v-.07h3.7v.95h-.06c0-.51-.35-.76-1.04-.76h-1.29v2.74h1.14c.22,0,.43-.04.6-.11s.28-.23.3-.49h.06v1.37h-.06c-.03-.16-.07-.27-.14-.36s-.14-.14-.21-.17-.13-.04-.18-.04c-.1-.02-.21-.02-.32-.02h-1.19v2.14c0,.16.03.3.09.42.06.12.21.18.44.18h.92c.22,0,.4-.03.55-.09s.26-.15.34-.26c.08-.11.15-.25.21-.41h.06l-.21.95h-3.7v-.07h.08c.13,0,.26-.05.39-.16s.19-.27.19-.51v-4.54c0-.19-.04-.35-.13-.48s-.23-.2-.45-.2h-.08Z"/>
    <path class="cls-2" d="M298.91,123.07h-.07c-.04-.29-.17-.55-.39-.77-.22-.22-.52-.33-.88-.33-.24,0-.45.05-.64.16s-.33.26-.43.45-.15.4-.15.65c0,.19.03.36.09.5s.15.27.27.39.26.22.42.31c.16.1.38.22.65.37.45.24.81.48,1.06.73.25.24.38.57.38.99,0,.26-.07.5-.2.74s-.34.43-.62.59-.62.23-1.02.23c-.26,0-.48-.03-.68-.08-.2-.05-.4-.13-.6-.22-.08-.03-.14-.04-.17-.04-.06,0-.1.02-.12.06-.02.04-.04.13-.07.27h-.07v-1.51h.07c.1.44.3.78.59,1s.65.34,1.07.34c.31,0,.57-.06.76-.17.19-.11.32-.25.39-.42s.11-.33.11-.49c0-.34-.11-.61-.32-.83s-.53-.43-.97-.66c-.3-.16-.52-.28-.66-.37s-.29-.2-.44-.34c-.15-.14-.26-.3-.35-.49s-.13-.41-.13-.65c0-.28.08-.56.23-.81s.37-.47.66-.62c.28-.16.6-.24.96-.24.27,0,.55.05.84.14.04.02.11.03.18.03.09,0,.16-.06.19-.18h.07v1.29Z"/>
    <path class="cls-2" d="M305.06,123.09h-.07c-.03-.39-.15-.65-.35-.76s-.46-.17-.76-.17h-1.23v5.06c0,.43.22.65.67.66v.07h-1.97v-.07c.19,0,.34-.06.47-.16s.19-.27.19-.51v-5.06h-1.23c-.3,0-.55.06-.76.17-.2.12-.32.37-.36.76h-.07v-1.47h.07c.04.07.08.12.12.15s.08.06.13.08.12.04.19.05c.07,0,.16.01.25.01h4.02c.27,0,.47-.1.62-.3h.07v1.47Z"/>
    <path class="cls-2" d="M307.96,121.84l1.86,5.16c.1.27.19.46.28.58s.17.2.25.23c.08.03.18.05.31.06v.07h-2.03v-.07c.21,0,.37-.02.48-.06s.17-.14.17-.31c0-.09-.03-.22-.08-.37-.01-.02-.02-.04-.02-.05l-.55-1.6h-2.15l-.49,1.48c-.07.2-.1.36-.1.49,0,.17.04.28.13.34s.21.08.37.08v.07h-1.46v-.07c.21-.02.37-.1.5-.23.12-.14.23-.34.33-.62l1.75-5.19h.45ZM306.55,125.27h1.97l-1.01-2.86h-.02l-.95,2.86Z"/>
    <path class="cls-2" d="M315.72,123.09h-.07c-.03-.39-.15-.65-.35-.76s-.46-.17-.76-.17h-1.23v5.06c0,.43.22.65.67.66v.07h-1.97v-.07c.19,0,.34-.06.47-.16s.19-.27.19-.51v-5.06h-1.23c-.3,0-.55.06-.76.17-.2.12-.32.37-.36.76h-.07v-1.47h.07c.04.07.08.12.12.15s.08.06.13.08.12.04.19.05c.07,0,.16.01.25.01h4.02c.27,0,.47-.1.62-.3h.07v1.47Z"/>
    <path class="cls-2" d="M316.17,121.98v-.07h3.7v.95h-.06c0-.51-.35-.76-1.04-.76h-1.29v2.74h1.14c.22,0,.43-.04.6-.11s.28-.23.3-.49h.06v1.37h-.06c-.03-.16-.07-.27-.14-.36s-.14-.14-.21-.17-.13-.04-.18-.04c-.1-.02-.21-.02-.32-.02h-1.19v2.14c0,.16.03.3.09.42.06.12.21.18.44.18h.92c.22,0,.4-.03.55-.09s.26-.15.34-.26c.08-.11.15-.25.21-.41h.06l-.21.95h-3.7v-.07h.08c.13,0,.26-.05.39-.16s.19-.27.19-.51v-4.54c0-.19-.04-.35-.13-.48s-.23-.2-.45-.2h-.08Z"/>
    <path class="cls-2" d="M326.63,123.07h-.07c-.04-.29-.17-.55-.39-.77-.22-.22-.52-.33-.88-.33-.24,0-.45.05-.64.16s-.33.26-.43.45-.15.4-.15.65c0,.19.03.36.09.5s.15.27.27.39.26.22.42.31c.16.1.38.22.65.37.45.24.81.48,1.06.73.25.24.38.57.38.99,0,.26-.07.5-.2.74s-.34.43-.62.59-.62.23-1.02.23c-.26,0-.48-.03-.68-.08-.2-.05-.4-.13-.6-.22-.08-.03-.14-.04-.17-.04-.06,0-.1.02-.12.06-.02.04-.04.13-.07.27h-.07v-1.51h.07c.1.44.3.78.59,1s.65.34,1.07.34c.31,0,.57-.06.76-.17.19-.11.32-.25.39-.42s.11-.33.11-.49c0-.34-.11-.61-.32-.83s-.53-.43-.97-.66c-.3-.16-.52-.28-.66-.37s-.29-.2-.44-.34c-.15-.14-.26-.3-.35-.49s-.13-.41-.13-.65c0-.28.08-.56.23-.81s.37-.47.66-.62c.28-.16.6-.24.96-.24.27,0,.55.05.84.14.04.02.11.03.18.03.09,0,.16-.06.19-.18h.07v1.29Z"/>
    <path class="cls-2" d="M333.62,127.94h-1.3v-1l-.02-.02c-.18.41-.45.7-.81.89-.36.19-.73.28-1.12.28-.44,0-.84-.1-1.19-.31-.35-.2-.61-.46-.78-.76-.12-.21-.19-.43-.22-.67-.03-.23-.05-.47-.05-.72v-3c0-.18-.04-.33-.11-.45s-.25-.2-.53-.22v-.07h1.95v.07c-.29.03-.47.11-.55.24s-.12.27-.12.43v2.95c0,.6.06,1.04.19,1.33.13.31.34.54.61.72s.58.26.92.26c.14,0,.31-.02.51-.07s.38-.13.55-.25c.51-.34.77-.89.77-1.64v-3.29c0-.17-.04-.31-.12-.44s-.26-.2-.56-.23v-.07h1.98v.07c-.29.01-.47.09-.55.23s-.12.29-.12.43v4.57c0,.16.03.28.08.37.05.09.13.16.23.19.1.04.22.07.36.09v.07Z"/>
    <path class="cls-2" d="M339.82,123.26h-.07c-.05-.29-.2-.54-.43-.75-.23-.2-.5-.35-.8-.45-.3-.09-.58-.14-.84-.14-.36,0-.69.07-1,.22s-.58.35-.81.62c-.23.27-.4.59-.53.96-.13.37-.19.78-.19,1.21s.06.82.18,1.18c.12.36.3.68.54.94.23.27.51.47.81.6s.65.2,1.03.2c.31,0,.66-.06,1.04-.19.38-.12.72-.33,1.02-.62v.23c-.37.28-.72.49-1.03.62-.31.13-.7.2-1.16.2-.49,0-.93-.09-1.34-.26-.4-.17-.74-.41-1.02-.7s-.49-.63-.63-.99-.21-.75-.21-1.14c0-.59.15-1.13.45-1.63.3-.5.7-.9,1.21-1.19s1.06-.44,1.65-.44c.37,0,.76.05,1.17.16l.44.12c.08.02.16.02.21.02.11,0,.18-.02.22-.05.04-.03.06-.09.08-.17h.07l-.06,1.44Z"/>
    <path class="cls-2" d="M346.03,123.26h-.07c-.05-.29-.2-.54-.43-.75-.23-.2-.5-.35-.8-.45-.3-.09-.58-.14-.84-.14-.36,0-.69.07-1,.22s-.58.35-.81.62c-.23.27-.4.59-.53.96-.13.37-.19.78-.19,1.21s.06.82.18,1.18c.12.36.3.68.54.94.23.27.51.47.81.6s.65.2,1.03.2c.31,0,.66-.06,1.04-.19.38-.12.72-.33,1.02-.62v.23c-.37.28-.72.49-1.03.62-.31.13-.7.2-1.16.2-.49,0-.93-.09-1.34-.26-.4-.17-.74-.41-1.02-.7s-.49-.63-.63-.99-.21-.75-.21-1.14c0-.59.15-1.13.45-1.63.3-.5.7-.9,1.21-1.19s1.06-.44,1.65-.44c.37,0,.76.05,1.17.16l.44.12c.08.02.16.02.21.02.11,0,.18-.02.22-.05.04-.03.06-.09.08-.17h.07l-.06,1.44Z"/>
    <path class="cls-2" d="M346.62,121.98v-.07h3.7v.95h-.06c0-.51-.35-.76-1.04-.76h-1.29v2.74h1.14c.22,0,.43-.04.6-.11s.28-.23.3-.49h.06v1.37h-.06c-.03-.16-.07-.27-.14-.36s-.14-.14-.21-.17-.13-.04-.18-.04c-.1-.02-.21-.02-.32-.02h-1.19v2.14c0,.16.03.3.09.42.06.12.21.18.44.18h.92c.22,0,.4-.03.55-.09s.26-.15.34-.26c.08-.11.15-.25.21-.41h.06l-.21.95h-3.7v-.07h.08c.13,0,.26-.05.39-.16s.19-.27.19-.51v-4.54c0-.19-.04-.35-.13-.48s-.23-.2-.45-.2h-.08Z"/>
    <path class="cls-2" d="M353.74,123.07h-.06c-.03-.29-.15-.55-.34-.77-.19-.22-.45-.33-.77-.33-.21,0-.39.05-.55.16s-.29.26-.37.45-.13.4-.13.65c0,.19.03.36.08.5s.13.27.23.39.22.22.36.31c.14.1.33.22.56.37.4.24.7.48.92.73.22.24.33.57.33.99,0,.26-.06.5-.18.74s-.3.43-.54.59-.54.23-.89.23c-.22,0-.42-.03-.59-.08-.17-.05-.34-.13-.52-.22-.07-.03-.12-.04-.15-.04-.05,0-.09.02-.1.06-.02.04-.04.13-.06.27h-.06v-1.51h.06c.09.44.26.78.51,1s.56.34.93.34c.27,0,.49-.06.66-.17.17-.11.28-.25.34-.42s.1-.33.1-.49c0-.34-.09-.61-.28-.83s-.46-.43-.84-.66c-.26-.16-.45-.28-.57-.37s-.25-.2-.38-.34c-.13-.14-.23-.3-.31-.49s-.11-.41-.11-.65c0-.28.07-.56.2-.81s.32-.47.57-.62c.25-.16.53-.24.84-.24.24,0,.48.05.73.14.04.02.09.03.16.03.08,0,.14-.06.16-.18h.06v1.29Z"/>
    <path class="cls-2" d="M343.88,130.41h-.06c-.04-.26-.16-.49-.38-.68-.21-.19-.5-.29-.85-.29-.23,0-.43.05-.61.15s-.32.23-.41.4-.15.36-.15.57c0,.17.03.32.09.45s.14.24.26.34.25.19.4.28c.15.09.36.19.62.33.44.22.78.43,1.02.65.24.21.36.51.36.88,0,.23-.07.45-.2.66s-.33.39-.59.52-.59.2-.98.2c-.25,0-.46-.02-.65-.07-.19-.05-.38-.11-.57-.2-.08-.02-.14-.04-.17-.04-.06,0-.09.02-.11.05-.02.04-.04.12-.07.24h-.07v-1.34h.07c.1.39.29.69.57.89s.62.3,1.02.3c.3,0,.54-.05.73-.15.18-.1.31-.23.38-.37s.11-.29.11-.44c0-.3-.1-.55-.31-.74s-.51-.39-.93-.58c-.29-.14-.5-.25-.63-.33s-.28-.18-.42-.3c-.14-.12-.25-.27-.34-.44s-.13-.36-.13-.58c0-.25.07-.49.22-.72s.36-.42.63-.55c.27-.14.58-.21.93-.21.26,0,.53.04.8.12.04.02.1.03.17.03.09,0,.15-.05.18-.16h.06v1.15Z"/>
  </g>
</svg>