<?xml version="1.0" encoding="UTF-8"?>
<svg id="Layer_2" data-name="Layer 2" xmlns="http://www.w3.org/2000/svg" viewBox="0 0 285.12 98.12">
  <defs>
    <style>
      .cls-1, .cls-2 {
        fill-rule: evenodd;
      }

      .cls-1, .cls-2, .cls-3, .cls-4 {
        stroke-width: 0px;
      }

      .cls-1, .cls-3 {
        fill: #862b22;
      }

      .cls-2, .cls-4 {
        fill: #034ea1;
      }
    </style>
  </defs>
  <g id="Layer_1-2" data-name="Layer 1">
    <g>
      <polygon class="cls-4" points="136.71 0 161.93 0 175.92 51.34 190.12 0 215.58 0 215.58 76.62 199.7 76.62 199.7 12.88 181.42 76.62 170.3 76.62 151.81 12.99 151.81 76.62 136.71 76.62 136.71 0"/>
      <polygon class="cls-3" points="78.11 0 122.62 0 122.62 12.81 96.03 12.81 96.03 31.13 121.16 31.13 121.16 43.94 96.03 43.94 96.03 63.7 123.86 63.7 123.86 76.62 78.11 76.62 78.11 0"/>
      <polygon class="cls-3" points="1.2 .15 63.71 .15 63.71 18.5 24.83 80.61 285.12 80.61 285.12 98.12 0 98.12 0 78.61 38.32 17.65 1.2 17.65 1.2 .15"/>
      <polygon class="cls-2" points="284.87 0 277.26 0 265.73 0 236.3 75.82 255.37 75.82 284.87 0"/>
      <polygon class="cls-2" points="220.97 0 228.58 0 240.11 0 250.56 26.92 241.02 51.5 241.01 51.52 220.97 0"/>
      <polygon class="cls-1" points="63.61 40.38 1.31 40.38 1.31 57.88 53.77 57.88 63.61 40.38"/>
    </g>
  </g>
</svg>